<svg id="Layer_35" enable-background="new 0 0 64 64" height="512" viewBox="0 0 64 64" width="512" xmlns="http://www.w3.org/2000/svg"><path d="m23 40v22h-4v-9-13z" fill="#d3a06c"/><path d="m51 54v8h-4v-12-6-4h4v4 6z" fill="#d3a06c"/><path d="m62 51v2c0 .55-.45 1-1 1h-10v-4h5 5c.55 0 1 .45 1 1z" fill="#b27946"/><path d="m51 34v6h-4-24-4v-6h11c0 1.1.9 2 2 2h4.5.01 7.78c1.78 0 3.54-.41 5.13-1.21z" fill="#dfb28b"/><path d="m38 20v4h-6c-.55 0-1.05-.22-1.41-.59-.37-.36-.59-.86-.59-1.41 0-1.1.9-2 2-2z" fill="#ccd1d9"/><path d="m32 24h6 2v7h-3.5c-1.38 0-2.5 1.12-2.5 2.5 0 .69.28 1.32.73 1.77s1.08.73 1.77.73h-4.5c-1.1 0-2-.9-2-2v-12c0 .55.22 1.05.59 1.41.36.37.86.59 1.41.59z" fill="#e6e9ed"/><g fill="#fcd770"><path d="m51 34-1.58.79c-1.59.8-3.35 1.21-5.13 1.21h-7.78-.01c-.69 0-1.32-.28-1.77-.73s-.73-1.08-.73-1.77c0-1.38 1.12-2.5 2.5-2.5h3.5 1.29c1.78 0 3.54-.41 5.13-1.21 2.36-1.18 4.95-1.79 7.58-1.79 4.42 0 8 3.58 8 8v8c0 3.31-2.69 6-6 6h-5v-6-4z"/><path d="m47 44v6h-.28c-.43 0-.81.28-.95.68l-3.18 9.56c-.35 1.05-1.34 1.76-2.45 1.76h-.56c-.71 0-1.36-.29-1.82-.76-.47-.46-.76-1.11-.76-1.82 0-.28.04-.55.13-.82l3.96-11.86c.54-1.64 2.07-2.74 3.79-2.74z"/><path d="m27.5 2c-.69 0-1.32.28-1.77.73s-.73 1.08-.73 1.77v5.5c0 3.87-3.13 7-7 7h-3-2-1c-.34 0-.67.02-1 .05-5.05.5-9 4.77-9 9.95v5.98c0 2.22 1.8 4.01 4.02 4h.98v16.02c0 .83.34 1.58.88 2.12s1.29.88 2.12.88c1.66 0 3-1.34 3-3 0 1.66 1.34 3 3 3 .83 0 1.58-.34 2.12-.88s.88-1.29.88-2.12v-13-6-3-8c3.12-.28 5.86-1.73 7.84-3.89 1.97-2.16 3.16-5.03 3.16-8.16v-6.45c0-1.38-1.12-2.5-2.5-2.5z"/><circle cx="13" cy="11" r="6"/><circle cx="53" cy="22" r="6"/></g><path d="m56 4v6c0 1.1-.9 2-2 2h-9v1.59c0 .78-.63 1.41-1.41 1.41-.38 0-.74-.15-1-.41l-2.59-2.59h-2c-1.1 0-2-.9-2-2v-6c0-1.1.9-2 2-2h16c1.1 0 2 .9 2 2z" fill="#b4dd7f"/><path d="m63 44v-8c0-3.839-2.42-7.114-5.811-8.406 1.703-1.278 2.811-3.306 2.811-5.594 0-3.859-3.141-7-7-7s-7 3.141-7 7c0 2.364 1.181 4.454 2.981 5.722-1.035.301-2.043.691-3.006 1.173-1.448.723-3.067 1.105-4.683 1.105h-.292v-7h-2v-4h-7c-1.654 0-3 1.346-3 3v11h-9v-9.118c6.332-1.012 11-6.418 11-12.927v-6.455c0-1.93-1.57-3.5-3.5-3.5s-3.5 1.57-3.5 3.5v5.5c0 3.309-2.691 6-6 6h-.111c1.301-1.272 2.111-3.042 2.111-5 0-3.859-3.141-7-7-7s-7 3.141-7 7c0 2.236 1.058 4.226 2.696 5.509-4.456 1.406-7.696 5.577-7.696 10.491v5.982c0 1.34.522 2.598 1.473 3.543.944.941 2.204 1.474 3.527 1.456v15.019c0 2.206 1.794 4 4 4 1.201 0 2.266-.542 3-1.382.734.84 1.799 1.382 3 1.382.732 0 1.409-.212 2-.556v6.556h6v-22h22v2h-1.117c-2.155 0-4.062 1.374-4.743 3.419l-3.955 11.867c-.123.367-.185.748-.185 1.133 0 1.975 1.606 3.581 3.581 3.581h.559c1.545 0 2.91-.984 3.396-2.448l2.464-7.39v9.838h6v-8h9c1.103 0 2-.897 2-2v-2c0-1.103-.897-2-2-2h-.111c1.301-1.272 2.111-3.042 2.111-5zm-15-22c0-2.757 2.243-5 5-5s5 2.243 5 5-2.243 5-5 5-5-2.243-5-5zm-9 8h-2.5c-1.93 0-3.5 1.57-3.5 3.5 0 .539.133 1.044.351 1.5h-1.351c-.552 0-1-.448-1-1v-9.184c.314.112.648.184 1 .184h7zm-7-9h5v2h-5c-.552 0-1-.448-1-1s.448-1 1-1zm-24-10c0-2.757 2.243-5 5-5s5 2.243 5 5-2.243 5-5 5-5-2.243-5-5zm8 44c-1.103 0-2-.897-2-2v-19h-2v19c0 1.103-.897 2-2 2s-2-.897-2-2v-29h-2v11.982c-.799 0-1.55-.311-2.116-.874-.571-.567-.884-1.322-.884-2.126v-5.982c0-4.963 4.037-9 9-9h6c4.411 0 8-3.589 8-8v-5.5c0-.827.673-1.5 1.5-1.5s1.5.673 1.5 1.5v6.455c0 5.776-4.338 10.526-10.091 11.049l-.909.083v16.913 14c0 1.103-.897 2-2 2zm6 6h-2v-8-12h2zm2-22h-4v-4h9.184c.414 1.161 1.514 2 2.816 2h4.5.006 7.786c1.925 0 3.854-.455 5.577-1.316l.131-.066v3.382h-4zm20.824 11.367-3.186 9.553c-.214.645-.817 1.08-1.498 1.08h-.559c-.872 0-1.581-.709-1.581-1.581 0-.17.027-.338.081-.5l3.955-11.867c.41-1.228 1.554-2.052 2.847-2.052h1.117v4.149c-.542.211-.984.642-1.176 1.218zm5.176 10.633h-2v-20h2v3zm11-10v2h-9v-2h4zm-9-2v-5-5-4.382l1.447-.724-.895-1.789-3.578 1.789c-1.447.724-3.066 1.106-4.682 1.106h-7.786-.006c-.827 0-1.5-.673-1.5-1.5s.673-1.5 1.5-1.5h2.5 2 .292c1.925 0 3.854-.455 5.577-1.316 2.203-1.102 4.669-1.684 7.131-1.684 3.859 0 7 3.141 7 7v8c0 2.757-2.243 5-5 5z"/><path d="m38 13h1.586l2.293 2.293c.449.449 1.071.707 1.707.707 1.331 0 2.414-1.083 2.414-2.414v-.586h8c1.654 0 3-1.346 3-3v-6c0-1.654-1.346-3-3-3h-16c-1.654 0-3 1.346-3 3v6c0 1.654 1.346 3 3 3zm-1-9c0-.552.448-1 1-1h16c.552 0 1 .448 1 1v6c0 .552-.448 1-1 1h-10v2.586c0 .338-.468.531-.707.293l-2.879-2.879h-2.414c-.552 0-1-.448-1-1z"/><path d="m45 6h2v2h-2z"/><path d="m49 6h2v2h-2z"/><path d="m41 6h2v2h-2z"/></svg>